<svg xmlns="http://www.w3.org/2000/svg" fill-rule="evenodd" stroke-linejoin="round" stroke-miterlimit="2" clip-rule="evenodd" viewBox="0 0 32 32"><path d="M15 5.472c0-.466-.108-.925-.318-1.341A6466.62 6466.62 0 0 0 12.894.553a1 1 0 0 0-1.789 0S9.83 3.102 9.317 4.131C9.107 4.547 9 5.006 9 5.472V14a2.997 2.997 0 0 0 3 3v-1 1a2.998 2.998 0 0 0 3-3V5.472Zm-3-2.236-.895 1.789c-.07.139-.105.292-.105.447V14a.998.998 0 0 0 1 1v1-1a.998.998 0 0 0 1-1V5.472c0-.155-.036-.308-.106-.447L12 3.236Z"/><path d="M10 6.26h4V15h-4z"/><path d="M10 7h4a1 1 0 0 0 0-2h-4a1 1 0 0 0 0 2ZM23 3a2.998 2.998 0 0 0-3-3v1-1a2.998 2.998 0 0 0-3 3v11a2.998 2.998 0 0 0 3 3v-1 1a2.998 2.998 0 0 0 3-3V3ZM11 32h10a1 1 0 0 0 0-2H11a1 1 0 0 0 0 2Z"/><path d="M20 27a1 1 0 0 0-1-1h-6a1 1 0 0 0-1 1v4a1 1 0 0 0 1 1h6a1 1 0 0 0 1-1v-4Z"/><path d="M22 9a1 1 0 0 0-1 1v4a.997.997 0 0 1-1 1 .997.997 0 0 1-1-1v-4a1 1 0 0 0-1-1h-4a1 1 0 0 0-1 1v4a.997.997 0 0 1-1 1 .997.997 0 0 1-1-1v-4a1 1 0 0 0-1-1H7c-.796 0-1.559.316-2.121.879A2.996 2.996 0 0 0 4 12v13c0 .796.316 1.559.879 2.121A2.996 2.996 0 0 0 7 28h18c.796 0 1.559-.316 2.121-.879A2.996 2.996 0 0 0 28 25V12c0-.796-.316-1.559-.879-2.121A2.996 2.996 0 0 0 25 9h-3ZM9 11H7a.997.997 0 0 0-1 1v13a.997.997 0 0 0 1 1h18a.997.997 0 0 0 1-1V12a.997.997 0 0 0-1-1h-2v3c0 .796-.316 1.559-.879 2.121a2.996 2.996 0 0 1-4.242 0A2.996 2.996 0 0 1 17 14v-3h-2v3c0 .796-.316 1.559-.879 2.121a2.996 2.996 0 0 1-4.242 0A2.996 2.996 0 0 1 9 14v-3Z"/></svg>